<mxfile host="app.diagrams.net" modified="2020-06-01T09:34:29.224Z" agent="5.0 (Macintosh; Intel Mac OS X 10_14_5) AppleWebKit/537.36 (KHTML, like Gecko) Chrome/83.0.4103.61 Safari/537.36 Edg/83.0.478.37" etag="1NsFVncGHaDdx2lHbm3c" version="13.1.11" type="github">
  <diagram id="zESFdTgGFczIAh1RgVUn" name="Page-1">
    <mxGraphModel dx="1426" dy="702" grid="1" gridSize="10" guides="1" tooltips="1" connect="1" arrows="1" fold="1" page="1" pageScale="1" pageWidth="850" pageHeight="1100" math="0" shadow="0">
      <root>
        <mxCell id="0" />
        <mxCell id="1" parent="0" />
        <mxCell id="F1veh76JN7t-XzX8Wg9u-13" value="" style="swimlane;shadow=0;labelBackgroundColor=#007FFF;strokeColor=#4277BB;fillColor=none;gradientColor=none;fontColor=#000000;align=right;collapsible=0;startSize=0;strokeWidth=2;swimlaneFillColor=none;" vertex="1" parent="1">
          <mxGeometry x="40" y="370" width="770" height="260" as="geometry" />
        </mxCell>
        <mxCell id="F1veh76JN7t-XzX8Wg9u-14" value="&lt;font style=&quot;font-size: 14px&quot;&gt;Shared Items&lt;/font&gt;" style="text;html=1;align=center;verticalAlign=middle;shadow=0;dashed=0;strokeColor=#6c8ebf;fillColor=#dae8fc;labelBackgroundColor=none;fontStyle=1;fontSize=12;spacingLeft=0;strokeWidth=3;" vertex="1" parent="F1veh76JN7t-XzX8Wg9u-13">
          <mxGeometry y="2.5" width="770" height="35" as="geometry" />
        </mxCell>
        <mxCell id="F1veh76JN7t-XzX8Wg9u-18" value="&lt;font style=&quot;font-size: 15px&quot;&gt;Templates&lt;br&gt;React bundled source codes&lt;br&gt;&lt;/font&gt;&lt;div style=&quot;font-size: 15px&quot;&gt;Renderings&lt;/div&gt;&lt;div style=&quot;font-size: 15px&quot;&gt;Layouts&lt;/div&gt;&lt;div style=&quot;font-size: 15px&quot;&gt;Placeholders&lt;/div&gt;&lt;div style=&quot;font-size: 15px&quot;&gt;Dictionary&lt;/div&gt;&lt;div style=&quot;font-size: 15px&quot;&gt;RouteTemplateName&lt;/div&gt;&lt;div style=&quot;font-size: 15px&quot;&gt;MediaLibraryPath&lt;/div&gt;" style="text;html=1;align=left;verticalAlign=middle;resizable=0;points=[];autosize=1;" vertex="1" parent="F1veh76JN7t-XzX8Wg9u-13">
          <mxGeometry x="280" y="70" width="210" height="120" as="geometry" />
        </mxCell>
        <mxCell id="F1veh76JN7t-XzX8Wg9u-19" value="" style="swimlane;shadow=0;labelBackgroundColor=#007FFF;strokeColor=#4277BB;fillColor=none;gradientColor=none;fontColor=#000000;align=right;collapsible=0;startSize=0;strokeWidth=2;swimlaneFillColor=none;" vertex="1" parent="1">
          <mxGeometry x="40" y="80" width="770" height="260" as="geometry" />
        </mxCell>
        <mxCell id="F1veh76JN7t-XzX8Wg9u-20" value="&lt;font style=&quot;font-size: 14px&quot;&gt;Specific Items&lt;/font&gt;" style="text;html=1;align=center;verticalAlign=middle;shadow=0;dashed=0;strokeColor=#6c8ebf;fillColor=#dae8fc;labelBackgroundColor=none;fontStyle=1;fontSize=12;spacingLeft=0;strokeWidth=3;" vertex="1" parent="F1veh76JN7t-XzX8Wg9u-19">
          <mxGeometry y="2.5" width="770" height="35" as="geometry" />
        </mxCell>
        <mxCell id="F1veh76JN7t-XzX8Wg9u-9" value="&lt;span style=&quot;font-size: 14px ; background-color: rgb(255 , 255 , 255)&quot;&gt;Singapore Sitecore JSS App&lt;br&gt;Singapore Domain&lt;br&gt;&lt;/span&gt;" style="verticalLabelPosition=bottom;html=1;verticalAlign=top;align=center;strokeColor=none;fillColor=#00BEF2;shape=mxgraph.azure.website_generic;pointerEvents=1;" vertex="1" parent="F1veh76JN7t-XzX8Wg9u-19">
          <mxGeometry x="60" y="70" width="70" height="60" as="geometry" />
        </mxCell>
        <mxCell id="F1veh76JN7t-XzX8Wg9u-10" value="&lt;span style=&quot;font-size: 14px ; background-color: rgb(255 , 255 , 255)&quot;&gt;Singapore Sitecore JSS App&lt;br&gt;&lt;/span&gt;&lt;span style=&quot;font-size: 14px ; background-color: rgb(255 , 255 , 255)&quot;&gt;Thailand Domain&lt;br&gt;&lt;/span&gt;" style="verticalLabelPosition=bottom;html=1;verticalAlign=top;align=center;strokeColor=none;fillColor=#00BEF2;shape=mxgraph.azure.website_generic;pointerEvents=1;" vertex="1" parent="F1veh76JN7t-XzX8Wg9u-19">
          <mxGeometry x="340" y="70" width="70" height="60" as="geometry" />
        </mxCell>
        <mxCell id="F1veh76JN7t-XzX8Wg9u-11" value="&lt;span style=&quot;font-size: 14px ; background-color: rgb(255 , 255 , 255)&quot;&gt;Singapore Sitecore JSS App&lt;/span&gt;&lt;span style=&quot;font-size: 14px ; background-color: rgb(255 , 255 , 255)&quot;&gt;&lt;br&gt;Vietnam domain&lt;br&gt;&lt;/span&gt;" style="verticalLabelPosition=bottom;html=1;verticalAlign=top;align=center;strokeColor=none;fillColor=#00BEF2;shape=mxgraph.azure.website_generic;pointerEvents=1;" vertex="1" parent="F1veh76JN7t-XzX8Wg9u-19">
          <mxGeometry x="600" y="70" width="70" height="60" as="geometry" />
        </mxCell>
      </root>
    </mxGraphModel>
  </diagram>
</mxfile>
